<?xml version="1.0" encoding="UTF-8"?> <svg xmlns="http://www.w3.org/2000/svg" xmlns:xlink="http://www.w3.org/1999/xlink" version="1.0" id="Layer_1" x="0px" y="0px" viewBox="0 0 122 179" style="enable-background:new 0 0 122 179;" xml:space="preserve"> <style type="text/css"> .st0{fill-rule:evenodd;clip-rule:evenodd;fill:#F6921E;} .st1{fill-rule:evenodd;clip-rule:evenodd;fill:#231F20;} .st2{fill-rule:evenodd;clip-rule:evenodd;fill:#FFFFFF;} .st3{fill-rule:evenodd;clip-rule:evenodd;fill:#ACDBCE;} .st4{fill-rule:evenodd;clip-rule:evenodd;fill:#066055;} </style> <g> <g> <path class="st0" d="M17.6,171.1l-6.3-1.6l3.9,2.3L17.6,171.1L17.6,171.1z M17.6,165.5l-1.6,4l1.6,1.6L17.6,165.5L17.6,165.5z M19.1,169.5l-1.5,1.6l6.1-1.6L19.1,169.5L19.1,169.5z M20.2,171.7l-2.5-0.7l4.2,4.6L20.2,171.7L20.2,171.7z M39.2,171.1l-6.3-1.6 l3.9,2.3L39.2,171.1L39.2,171.1z M39.2,165.5l-1.6,4l1.6,1.6L39.2,165.5L39.2,165.5z M40.7,169.4l-1.5,1.6l6.1-1.6H40.7 L40.7,169.4z M41.8,171.7l-2.5-0.6l4.2,4.6L41.8,171.7L41.8,171.7z M60.8,171l-6.3-1.6l3.9,2.3L60.8,171L60.8,171z M60.8,165.5 l-1.6,4l1.6,1.6L60.8,165.5L60.8,165.5z M62.3,169.4l-1.5,1.6l6.1-1.6H62.3L62.3,169.4z M63.4,171.7l-2.5-0.6l4.2,4.6L63.4,171.7 L63.4,171.7z M82.4,171l-6.3-1.6l3.8,2.3L82.4,171L82.4,171z M82.4,165.4l-1.6,4l1.6,1.6V165.4L82.4,165.4z M83.9,169.4l-1.5,1.6 l6.1-1.6H83.9L83.9,169.4z M85,171.7l-2.5-0.6l4.3,4.6L85,171.7L85,171.7z M104,171l-6.3-1.6l3.9,2.3L104,171L104,171z M104,165.4 l-1.6,4l1.6,1.6V165.4L104,165.4z M105.5,169.4L104,171l6.1-1.6L105.5,169.4L105.5,169.4z M106.6,171.7L104,171l4.2,4.6 L106.6,171.7L106.6,171.7z M17.6,164.6l1.8,4.5l5.4,0l-4.2,2.7l1.9,4.6l-4.9-2.9l-4.7,2.9l1.8-4.6l-4.4-2.7h5.5L17.6,164.6 L17.6,164.6z M17.7,173.2l0-2.1l-4,4.6L17.7,173.2L17.7,173.2z M39.2,164.6l1.8,4.5h5.3l-4.2,2.7l2,4.6l-4.9-2.9l-4.7,2.9l1.8-4.6 l-4.4-2.7h5.5L39.2,164.6L39.2,164.6z M39.2,173.2v-2.1l-4,4.6L39.2,173.2L39.2,173.2z M60.8,164.6l1.8,4.5H68l-4.2,2.7l1.9,4.6 l-4.9-2.9l-4.7,2.9l1.8-4.6l-4.4-2.7l5.4,0L60.8,164.6L60.8,164.6z M60.8,173.2V171l-4,4.6L60.8,173.2L60.8,173.2z M82.4,164.6 l1.8,4.4l5.4,0l-4.2,2.7l2,4.6l-4.9-2.9l-4.7,2.9l1.9-4.6l-4.4-2.7h5.5L82.4,164.6L82.4,164.6z M82.4,173.1V171l-4,4.6L82.4,173.1 L82.4,173.1z M104,164.6l1.8,4.5l5.4,0l-4.2,2.7l1.9,4.6l-4.9-2.9l-4.7,2.9l1.9-4.6l-4.5-2.7h5.5L104,164.6L104,164.6z M104,173.1 V171l-4,4.6L104,173.1L104,173.1z"></path> <path class="st1" d="M43.1,102.8c2.2,0,4.2-0.1,6,0.6c0.4,0.1,0.8,0.3,1.1,0.6c2.2,2.5,0.1,4.9-2.4,6c-0.5,0.2-0.9,0.4-1.4,0.6 c0,0.1,0,0.1,0.1,0.1c0.3,0.3,0.6,0.6,0.9,1c0.6,0.6,1.3,1.3,2,1.9c1.2,1.1,2.3,2.4,3.6,3.6c0.3,0.2,0.8,0.7,1.1,0.7 c0.8-1.1,1.6-2.2,2.4-3.3c1.7-2.5,3.4-5,4.8-7.7c0.6-1.1,1.3-2.2,1.3-3.6c0.4-0.1,3.7-0.2,3.9,0.1c0.1,0.2,0.2,0.4,0.3,0.6 c0.5,0.8,0.7,1.6,1.1,2.4c1,2.1,2,4.2,3.1,6.2c0.4,0.8,0.9,1.7,1.3,2.5c0.4,0.7,0.8,1.3,1.3,1.9c0.3,0.5,0.6,1.1,1.2,1.5 c0.1,0,0,0,0,0.1c0,0,0,0,0,0s0-0.1,0-0.1c1-0.9,1.2-3.5,1.3-4.9c0-0.3,0.1-0.5,0.1-0.8c0-0.9,0-1.9,0.1-2.8c0-0.9,0-1.8-0.1-2.6 c0-0.7-0.1-1.5-0.1-2.1c0-0.8,0.2-1-0.4-1.6c-0.1-0.1-0.2-0.3,0-0.3c0.5-0.2,4.3-0.1,4.6,0.1c0.6,0.4,1,1.8,1.4,2.4 c0.9,1.9,1.8,3.7,2.6,5.6c0.3,0.6,0.6,1.2,0.9,1.8c0.2,0.4,0.4,1,0.7,1.4c0.1,0.1,0.2,0.3,0.4,0.3c1.6-2.7,3.1-5.3,4.6-8 c0.5-0.8,0.9-1.7,1.4-2.5c0.2-0.3,0.3-0.7,0.7-0.9c0.8-0.4,2.9-0.2,4-0.2c0,0,0,0,0,0c0.1,0,0.1,0,0.1,0c0,0,0,0,0.1,0 c0,0,0,0,0.1-0.1c0,0,0,0.1,0,0.1c0.1,0,0.1,0,0.1,0.1c0,0,0.1,0,0.2,0c0,0.1,0,0.1-0.1,0.1c-0.8,1.2-0.5,3.2-0.5,4.7 c0,1.4,0,2.8,0,4.1c0,1.2-0.1,2.4,0.2,3.5c0.1,0.7,0.3,1.4,0.5,2c0.1,0.3,0.3,0.6,0.5,0.9c0,0,0.1,0,0.1,0 c0.8-1.1,1.6-2.2,2.5-3.2c1.1-1.4,2.1-2.9,3-4.3c0.8-1.2,1.6-2.4,2.2-3.7c0.5-1,1.4-2.2,1.5-3.4c0-0.1,0.1-0.5,0-0.5 c0,0,0,0,0.1,0c0.4-0.2,3.7-0.1,3.9,0c0.2,0.2,0.3,0.5,0.4,0.7c0.4,0.8,0.8,1.7,1.2,2.6c0.4,1,1,2.1,1.5,3 c0.9,1.8,1.9,3.6,2.9,5.4c0.2,0.4,2.3,3.6,2.6,3.6c0,0,0,0.1,0,0.1c-0.8,0-1.6,0.1-2.5,0.1c-0.5,0-0.9,0-1.4-0.1 c-1.8-3.4-3.5-6.9-5.3-10.3c-0.4-0.7-0.8-1.4-1.1-2.1c-0.1-0.2-0.5-0.7-0.5-0.9c-0.1,0-0.2,0-0.3-0.1c-0.4,0.4-0.6,1-0.9,1.4 c-0.5,0.9-1.1,1.9-1.7,2.8c-0.2,0.3-0.8,1-0.8,1.4c0.6,0,1.2,0,1.8,0.1c0.4,0,0.8,0,1.2-0.1c0,0,0,0,0-0.1c0.3,0.1,0.8,0,1.2,0 c0.4,0,0.9,0,1.3,0c0.2,0,0.5,0,0.7-0.1c0,0.1,0,0.2,0,0.3c-0.3,0.2-0.6,0.4-0.8,0.5c-1.6,0.7-4.3,0.8-6.2,0.8 c-0.6,1.1-1.2,2.2-1.7,3.3c-0.2,0.5-0.6,0.9-0.7,1.4c-0.1,0.4,0,0.8-0.1,1.2c0,0.2-0.2,0.3-0.2,0.4c-0.6-0.1-1.2-0.1-1.9-0.1 c-0.4,0-0.9-0.1-1.4-0.1c-0.6,0-1.1,0.1-1.7,0.1c-1,0-2.1,0-3-0.1c-0.2,0-1,0-1-0.1c0,0-0.1,0-0.1,0c0.2-0.6,0.5-1.3,0.5-2 c0.1-0.7,0.1-1.5,0.1-2.2c0.1-1.9,0-3.8,0-5.7c0-0.5,0.1-3-0.3-3c-0.6,1-1.1,2-1.7,3c-1,1.7-2,3.3-3,5c-0.4,0.6-0.7,1.3-1.1,2 c-0.4,0.7-0.9,1.5-1.3,2.2c-0.2,0.2-0.3,0.5-0.5,0.7c-0.3-0.1-1.6-2.5-1.8-2.9c-1.8-3.3-3.6-6.6-5.5-9.9c0,0,0,0-0.1,0 c-0.3,1.4-0.1,3-0.1,4.5c0,1.9-0.2,4.1,0,6c0.1,0.6,0.2,1.2,0.4,1.7c0.1,0.2,0.3,0.4,0.3,0.6c0,0-0.1,0-0.1,0 c-0.3,0.1-0.7,0.1-1.1,0.1c-0.8,0-1.5-0.1-2.3,0c-1.1,0-2.3,0.1-3.4,0c-0.2,0-0.4,0-0.6-0.1c-0.3-0.2-0.7-1.2-0.9-1.6 c-1.2-2.4-2.5-4.8-3.7-7.3c-0.4-0.8-0.8-1.7-1.2-2.5c-0.3-0.6-0.5-1.2-1-1.7c-0.1-0.1-0.3-0.2-0.4-0.2c-0.1,0.4-0.6,1.1-0.8,1.5 c-0.5,1-1.1,1.9-1.6,2.9c-0.1,0.2-0.6,0.9-0.6,1.1c-0.1,0-0.1,0-0.1,0.1c0.9,0,1.9,0.1,2.9,0.1c0.1-0.1,0.5,0,0.5-0.1 c0.1,0,0.1,0,0.1-0.1c0.4,0.1,0.8,0.1,1.2,0.1c0.2,0,0.3,0,0.5-0.1c0.2-0.1,0.8,0,0.8,0.2c-0.3,0.2-0.6,0.4-0.9,0.6 c-1,0.4-2.2,0.6-3.4,0.7c-0.5,0-2.2,0-2.5,0.2c-0.4,0.2-0.7,1-0.9,1.4c-0.4,0.8-0.8,1.5-1.2,2.3c-0.2,0.4-0.3,0.7-0.5,1 c0,0.3-0.1,0.6-0.1,0.8c0,0.2,0.1,0.8-0.1,0.8c-0.9,0-1.8,0-2.7,0c-0.3,0-0.7,0.1-1,0.1c-0.9,0-2-0.1-2.7-0.4 c-1-0.3-1.6-1.1-2.4-1.8c-1.1-1.1-2.2-2.2-3.4-3.2c-0.4-0.3-3.2-3.1-3.2-3.2c0-0.1,0.1-0.1,0.2-0.1c0.7,0,1.6,0,2.3-0.1 c2.1-0.5,3.8-1.2,3.6-3.6c-0.3-2.7-4-2.4-6.2-2.3c-0.1,0-0.1,0-0.1,0.1c0,0,0,0-0.1,0c0,3.2,0,6.4,0,9.6c0,0.6-0.1,1.3,0,1.9 c0,0.7,0.1,1.4,0.2,2c0.1,0.4,0.5,0.7,0.5,1.1c-1.5,0-3,0-4.5,0c0-0.1-0.1-0.2,0.1-0.2c0.1-0.3,0.3-0.5,0.4-0.8 c0.3-0.8,0.3-1.9,0.2-2.8c0-0.9,0-2,0-2.9c0-1.9,0.1-3.9,0-5.7c0-0.7-0.1-1.4-0.2-2.1c0-0.2-0.3-0.5-0.3-0.7c0,0,0,0,0-0.1 c0.1-0.1,1.1-0.2,1.3-0.2c0.5-0.2,1.5-0.1,2.1-0.1C41.8,102.7,42.6,102.9,43.1,102.8L43.1,102.8z M16.7,103.1c1.5,0,2.9,0,4.4,0.1 c0,0.1,0,0.1-0.1,0.1c-0.3,0.4-0.5,0.8-0.6,1.2c-0.2,1.1,0,2.2-0.1,3.3c0,1.5,0,3,0,4.4c0,0.7-0.1,1.4,0,2 c0.1,0.6,0.5,1.3,0.9,1.8c1.3,1.3,3.1,1.4,5.1,1.4c0.2,0,0.4,0,0.6-0.1c0.6-0.4,1.4-0.4,2-0.9c1.9-1.7,1.6-5.4,1.6-8 c0-1.6,0.1-3.3-0.4-4.7c0-0.1-0.2-0.4-0.1-0.5c0.1,0,0.1-0.1,0.2-0.1c0.2,0,0.5,0,0.7,0c0.7,0,1.5,0,2.2,0c0.2-0.1,1.1,0,1.1,0.1 c0.1,0.2-0.3,0.9-0.4,1.2c-0.2,0.7-0.2,1.8-0.1,2.6c0,0.5,0,1,0,1.5c0,0.8,0,1.6,0,2.4c0,1.7,0,3.4,0.1,5.2c0,0.5,0.1,1.1,0.2,1.5 c0.1,0.3,0.4,0.7,0.4,1c0,0,0,0-0.1,0c0,0,0,0,0,0.1c-0.7-0.1-1.4-0.1-2.1,0c-0.6,0-1.2,0-1.8,0c0-0.6,0-1.3,0-1.9 c0,0-0.1,0-0.1,0c-0.3,0.5-1,0.8-1.5,1.1c-1,0.4-2,0.8-3.1,1c-2.1,0.4-5.2,0.2-6.8-0.9c-0.6-0.4-1.2-1-1.4-1.6 c-0.5-1.2-0.4-2.8-0.4-4.2c0-1.8,0-3.6,0-5.3c0-0.6,0-1.3,0-1.9c0-0.2-0.1-0.4-0.1-0.6C16.9,103.9,16.4,103.4,16.7,103.1 L16.7,103.1z M2.6,103.1c2.8,0,5.6,0,8.4,0c0.6,0,2.1-0.2,2.5,0.1c0.4,0.3,0.4,1.1,0.4,1.5c0,0.1,0,0.6-0.2,0.5 c-0.3-0.1-0.5-0.3-0.8-0.5c-0.3-0.2-0.7-0.2-1-0.4c-1.4-0.4-3.3-0.2-4.9-0.2c-0.2,0-1,0-1,0.1c0,0,0,0-0.1,0c0,2,0,3.9,0,5.9 c0.5,0,0.9,0,1.4,0.1c1.8,0,3.6,0,5.4,0c0.1,0,0.8-0.1,0.8,0c0,0,0,0,0.1,0c0,0,0,0.1,0,0.1c0,0,0,0-0.1,0 c-0.4,0.3-0.9,0.5-1.4,0.6c-0.5,0.2-1.1,0.4-1.6,0.4c-1.4,0.2-3,0.1-4.5,0.1c0,0,0,0,0,0.1c0,0,0,0-0.1,0c0,1.1,0,2.1,0,3.2 c0,1.2,0,2.2,0.4,3.2c0,0.1,0.1,0.4,0.3,0.5c0,0,0,0.1,0,0.1c0,0-0.1,0-0.1,0c-0.4,0.1-0.9,0-1.4,0c-0.3,0-0.5,0-0.8,0.1 c-0.3,0-0.6-0.1-1-0.1c-0.4,0-0.8,0-1.2,0.1c0-0.1,0-0.2,0-0.3c0.4-0.3,0.6-1,0.7-1.5c0.2-1.6,0.1-3.3,0-4.9c0-1.7,0-3.4,0-5.2 c0-0.9,0-1.7-0.1-2.5c-0.1-0.3-0.4-0.8-0.4-1C2.3,103.2,2.5,103.2,2.6,103.1L2.6,103.1z"></path> <path class="st1" d="M72.6,158.7c-0.1-0.2-0.3-0.3-0.4-0.5c-0.2-0.4-0.4-0.7-0.7-1.1c-0.5-0.9-1-1.9-1.5-2.8 c-0.3-0.7-0.6-1.4-1-2.1c-0.1-0.2-0.2-0.4-0.3-0.6c-0.3-0.3-1.1-0.1-1.6-0.1c-0.1,0-0.1,0-0.1,0c-0.1,0.1-0.2,0.1-0.2,0.2 c-0.1,0.3-0.3,0.7-0.4,1c-0.4,0.8-0.8,1.5-1.2,2.2c-0.6,0.9-1.2,1.7-1.8,2.6c-0.3,0.4-0.7,0.7-0.9,1.2c0,0,0,0-0.1,0 c0,0,0,0,0,0.1c0.7,0,1.4,0,2.1,0.1c0-0.3-0.1-0.6,0-0.9c0.1-0.3,1-2.1,1.3-2.3c0.4-0.2,1.2-0.1,1.7-0.1c0.4,0,1.2-0.1,1.5,0.1 c0.2,0.1,0.3,0.4,0.4,0.6c0.3,0.5,0.6,1,0.9,1.5c0.1,0.3,0.3,0.7,0.5,0.9c0.2,0.1,0.5,0.1,0.7,0.1c0.2,0,0.7,0.1,0.9,0 c0,0,0.1,0,0.1,0C72.6,158.8,72.6,158.8,72.6,158.7L72.6,158.7z M68.7,155.1C68.7,155,68.7,155,68.7,155.1c-0.6,0-1.6-0.1-1.9,0 c-0.2,0-0.4,0-0.5,0c0,0,0,0,0-0.1c0,0,0,0-0.1,0c0.5-0.8,1-1.6,1.4-2.5C67.8,152.9,68.9,154.8,68.7,155.1L68.7,155.1z M43.6,158.7c-0.2-0.3-0.4-0.6-0.7-0.9c-0.7-1.1-1.3-2.2-1.9-3.4c-0.3-0.6-0.6-1.3-0.9-1.9c-0.1-0.2-0.2-0.5-0.4-0.7 c-0.2-0.2-0.9-0.2-1.2-0.1c-0.2,0-0.4,0-0.6,0c-0.1,0-0.1,0-0.1,0c0,0.4-0.2,0.7-0.3,1c-0.6,1.4-1.5,2.7-2.5,4 c-0.5,0.7-0.9,1.5-1.6,2c0,0.1,0,0.1,0,0.2c0.7,0,1.4,0,2,0.1c0-0.4,0-0.9,0.1-1.3c0.1-0.3,0.9-1.8,1.2-1.9 c0.5-0.2,1.2-0.1,1.8-0.1c0.4,0,1.2-0.1,1.5,0.1c0.2,0.1,0.3,0.4,0.4,0.6c0.4,0.6,0.7,1.3,1,1.9c0.1,0.2,0.2,0.3,0.3,0.5 c0.2,0.1,1.4,0.2,1.6,0.1c0.1,0,0.1,0,0.1,0C43.6,158.8,43.6,158.8,43.6,158.7L43.6,158.7z M39.7,155c-0.1,0.1-2.2,0.1-2.5,0.1 c0,0-0.1,0-0.1,0c0-0.1,0.2-0.3,0.2-0.4c0.4-0.7,0.9-1.4,1.3-2.1C38.8,153,39.8,154.7,39.7,155L39.7,155z M26.3,151.8 c-0.6-0.2-1.3-0.1-2-0.1c-0.4,0-1.6-0.1-1.9,0c-0.4,0-0.9-0.1-1.2,0c-0.4,0-0.7,0-1.1-0.1c0.1,0.3,0.2,0.5,0.3,0.8 c0.1,0.6,0,1.3,0,2c0,0.9,0.2,3.6-0.3,4.2c0,0.1,0,0.2,0,0.3c0.7,0,1.3,0,1.9,0c0.4,0,0.7,0,1.1-0.1c0.9,0,1.9,0,2.7-0.2 c0.6-0.2,1.2-0.4,1.7-0.8c0.5-0.3,1-0.7,1.2-1.2C29.7,154.6,28.6,152.3,26.3,151.8L26.3,151.8z M25.9,157.9 c-0.6,0.4-3.4,0.9-4,0.2c-0.1-0.2-0.1-0.4-0.2-0.6c0-0.9,0-1.9,0-2.8c0-0.7-0.1-1.8,0-2.4c0.3,0,0.7-0.1,1-0.1c1.1,0,2.2,0,3,0.5 c0.6,0.3,1,0.8,1.2,1.3C27.6,155.3,27.2,157.2,25.9,157.9L25.9,157.9z M101.8,155C101.8,155,101.7,155,101.8,155 C101.7,154.9,101.7,154.9,101.8,155c-0.3-0.1-0.6,0-0.8,0c-0.4,0-0.8-0.1-1.2,0c0,0,0-0.1,0-0.1c-0.1,0-0.1,0.2-0.1,0.3 c0.1,0.2,0.1,0.4,0.2,0.5c0.1,0.7,0.1,1.8-0.2,2.5c-0.1,0-0.2,0-0.3,0c-0.1,0-0.2,0-0.4,0.1c-1.3,0-2.6-0.2-3.5-0.9 c-0.7-0.5-0.9-1.1-1-1.8c-0.4-2.2,1.2-3.9,3.6-3.8c0,0.1,0.2,0.1,0.3,0.1c1-0.1,1.9,0.3,2.7,0.6c0,0.1,0.1,0.1,0.1,0.1 c0,0,0-0.1,0-0.1c0.1,0,0.1-0.9,0.1-1.1c0,0,0,0-0.1,0c0-0.1,0-0.1-0.1-0.1c-0.6,0-1.3,0-1.9-0.1c-0.5,0.1-1.4-0.1-1.8,0.1 c-0.4,0-0.8,0-1.1,0.2c-0.6,0-1.1,0.2-1.5,0.4c-0.5,0.3-1.1,0.5-1.4,1c-1.1,1.3-1.3,3.5,0.1,4.7c2,1.7,5.3,1.2,8,1.1 C101.6,157.6,101.2,155.9,101.8,155C101.8,155,101.8,155,101.8,155L101.8,155z M57.7,151.6c-0.2,0-1.4,0-1.5,0.1c0,0,0,0,0,0 c-0.1,0.3,0.2,0.9,0.2,1.2c0,1.3,0,2.6,0,4c0,0,0,0-0.1,0c0,0,0,0,0,0.1c0,0-0.1,0-0.1,0c0,0,0,0,0-0.1c-0.7-0.7-1.4-1.4-2-2.2 c-0.7-0.6-1.3-1.3-2-2c-0.3-0.3-0.7-0.9-1.2-1.1c-0.4-0.1-1.5-0.1-2-0.1c0.1,0.4,0.3,0.7,0.4,1.1c0,0.6,0,1.2,0,1.8 c0,1.5,0.1,3.1-0.6,4.3c0,0.1,0,0.1,0,0.1c0.6,0,1.4,0.1,1.9,0c0.1,0-0.1-0.4-0.1-0.5c-0.2-0.5-0.2-1.1-0.3-1.6 c-0.1-1.2,0-2.5,0-3.7c0,0,0,0,0.1,0c0,0,0,0,0,0.1c0.1,0,0.1,0,0.1,0.1c1.3,1.3,2.6,2.7,3.9,4c0.5,0.5,1,1.1,1.6,1.6 c0.3,0,1,0.1,1.2-0.1c0.2-0.3,0.1-0.8,0.1-1.1c0-1.6,0-3.3,0-4.9C57.5,152.3,57.6,151.9,57.7,151.6L57.7,151.6z M85.9,151.6 c-0.2,0-0.7-0.1-0.8,0c0,0,0,0.1,0,0.1c0.4,1.5,0.2,3.4,0.2,5.1c-0.1,0-0.1,0-0.1,0c0,0,0,0-0.1,0c0-0.1-0.2-0.2-0.3-0.3 c-1.3-1.3-2.6-2.7-3.9-4c-0.3-0.3-0.7-0.9-1-1c-0.2,0-0.5-0.1-0.7,0c-0.4,0-0.9,0-1.3,0c-0.1,0.2,0.2,0.8,0.2,1.2 c0.1,1.4,0.1,2.9,0,4.3c0,0.7-0.4,1.2-0.5,1.8c0.6,0,1.3,0,1.9,0c0,0,0-0.1,0-0.1c0.1,0-0.1-0.3-0.1-0.4c-0.5-1.5-0.3-3.5-0.3-5.3 c0,0,0,0,0.1,0c0,0,0,0,0-0.1c0,0,0,0,0.1,0c0,0,0,0.1,0,0.1c0.2,0.3,0.5,0.5,0.7,0.8c0.3,0.3,0.6,0.7,1,1c1,1,2,2,3,3 c0.3,0.3,0.6,0.7,0.9,0.9c0.2,0.1,0.9,0.2,1.1,0c0,0,0,0,0.1,0c0.3-0.3,0-1,0-1.4c0-1.1,0-2.3,0-3.4c0-0.8,0-1.6,0.3-2.3 c0.1,0,0.1,0,0.1-0.1C86.4,151.6,86.1,151.6,85.9,151.6L85.9,151.6z"></path> <path class="st1" d="M21.8,17.2c0,0,38.1-31.2,77.9,0c0.1,0.1-15.2,29.8-8.6,66.7c0,0-9.5,7.1-29.8,2c0,0-14.2,5.1-30.2-1.8 C31.2,84.1,36.9,52.6,21.8,17.2L21.8,17.2z"></path> <path class="st2" d="M20.6,16.4c0,0,38.1-31.2,77.9,0c0.1,0.1-15.2,29.8-8.5,66.7c0,0-9.5,7.1-29.8,2c0,0-14.2,5.1-30.2-1.8 C30,83.3,35.7,51.8,20.6,16.4L20.6,16.4z"></path> <path class="st3" d="M24.6,13.7c-0.5,0.4-1,0.7-1.4,1c0.1,0.3,12.8,27.7,10,61.6c0.9,0.7,6.5,4.6,22.2,2.4c0.2,0,0.4-0.1,0.6-0.1 c1.1-0.2,2.5-0.6,8.4,0.3c0,0,3.8,0.7,6.1,0.4v-1.5c-1.1,0.1-3.6,0-7.8-1.3c0,0-4.1-1-9.7,0.7l0,0l0,0c-1.1,0.1-6.5,0.9-7.4,0.7 l-0.4-0.1l0-0.4c0-0.4,1.8-35.7-6.3-52.9l-1.2,0.6c1.1,3.1,8.4,25.7,5.4,52.6l0,0.5l-0.5-0.1c-2.1-0.3-7.1-1-7.5-2.4l0-0.1v-0.1 C35.2,75.2,37.4,38.9,24.6,13.7L24.6,13.7z M85.7,85.1c0.5-0.2,1-0.4,1.4-0.5c-0.7-5.5-4-36.5,5.9-63.5c-2.3-2-23.6-19.2-53.2-7.1 l0.4,1.5c3.3-1.8,20.8-10,41.8,0.3l0.4,0.2l-0.2,0.4c-0.1,0.3-9.8,25-8.2,53.2l1.6-0.4c-0.2-3.2-1.4-26.4,8.4-51.8l0.2-0.5 l0.5,0.2c1.9,0.9,6.4,3.2,6.6,4.4l0,0.1l-0.1,0.1C91.3,21.8,81.3,43.3,85.7,85.1L85.7,85.1z M58.9,82.5l0.2-0.1l0.2,0.1 c0.1,0,12.3,3.7,22.6,1.1c-0.5-3.6-4.2-31,4.1-55l-1.7-1c-1.1,4.1-7.6,28.6-5.1,44.8l0.1,0.4l-0.4,0.1c-0.3,0.1-7.7,1.5-13.5-0.3 l0,0l0,0c0,0-6.2-2.5-16.5,1.3l0,1.1c1.1-0.3,3.5-0.8,8.4-1.7c0.2,0,4.7-0.5,10.3,1.5c0.6,0.1,7.4,0.9,10.7,0l0.5-0.2l0.1,0.5 l0.9,6.4l0,0.3l-0.2,0.2c-0.2,0.1-4.4,2.9-20.6-0.6c-1.7,0.5-18.6,4.7-28.3-1.6c-0.1,0.7-0.1,1.3-0.2,1.7 C33.4,82.8,45.3,87.1,58.9,82.5L58.9,82.5z M52,7c11.3-1.9,28.3-1.1,45,12.9c0.1-0.4,0.3-0.7,0.4-1c-1.2-1.2-29.9-27.1-68.7-4.3 c1.4,3.4,11.9,29.6,10.7,54l0,3.2l0.9,0.1c0.3-3.4,1.6-25.2-5.7-47.3l-0.1-0.3l0.2-0.2c0.1-0.1,3.7-3.4,10.8-5.6 c6.5-2,17.3-3.4,32,1.2l0.8-1.7c-3.2-1.2-23.1-7.8-43.5,4l-0.5,0.3L34,21.8l-3.1-6.7l-0.2-0.3l0.3-0.2C31.1,14.5,39.6,9,52,7L52,7 z M96.6,20.7L96.6,20.7C66.7-4.4,35.5,13,31.9,15.1l2.7,5.9C57.1,8.3,78.8,17.3,79,17.3l0.4,0.2l-0.2,0.4l-1.1,2.5L78,20.9 l-0.4-0.1c-26.2-8.3-40.2,2.4-42,4c7.9,23.9,5.6,47.6,5.6,47.8l-0.1,0.5l-0.5,0l-1.8-0.2l-0.4,0v-0.4c0,0,0-3.6,0-3.7 c1.2-25.8-10.7-53.7-10.8-54l-0.2-0.4l0.4-0.2c21.1-12.5,39.1-10.7,50.5-7c10.9,3.6,17.9,9.5,19.5,10.9c0.4-1,0.7-1.5,0.7-1.5 c-31.4-24.6-61.7-10.3-73-3.2c12.5,24.7,10.8,60,10.7,62.3c0.3,0.5,3.1,1.2,6.1,1.6c3-28.4-5.4-51.9-5.5-52.1l-0.1-0.4l0.4-0.2 l2-1.1l0.5-0.2l0.2,0.4c7.9,16.2,6.8,49.1,6.6,53.3c1.1,0,4.1-0.4,6.6-0.7c5.8-1.7,10-0.7,10.2-0.7c5.4,1.6,7.9,1.2,7.9,1.2 l0.6-0.1v0.6l0,2.4v0.4l-0.4,0.1c-2.4,0.5-6.7-0.3-6.9-0.3c-5.7-0.8-7.1-0.5-8-0.3c-0.2,0.1-0.4,0.1-0.7,0.1 c-17.9,2.4-23-2.6-23.2-2.9l-0.1-0.1v-0.2c2.7-32.3-8.7-58.7-9.9-61.2c-1.1,0.8-1.7,1.3-1.7,1.3c11.7,27.3,10.9,52.3,9.9,62.2 c9.5,6.7,27.9,1.8,28.1,1.7l0.1,0l0.1,0c13.7,3,18.7,1.3,19.7,0.9l-0.8-5.6c-3.8,0.8-10.4-0.1-10.6-0.1l-0.1,0l0,0 c-5.3-1.9-9.8-1.5-9.8-1.5c-6.2,1.1-8,1.6-8.6,1.8v0.3l-0.5-0.1c-0.3,0-0.5-0.2-0.5-0.5c0-0.1,0-0.2,0.1-0.3v-1.9v-0.3l0.3-0.1 c10.9-4.1,17.3-1.5,17.6-1.4c4.7,1.5,10.8,0.7,12.5,0.4c-2.6-17.9,5.3-45.1,5.4-45.4l0.2-0.6l0.6,0.3l2.6,1.5l0.3,0.2L87,28.5 c-9,25.5-4.2,55-4.2,55.3l0.1,0.4l-0.4,0.1c-10,2.7-21.9-0.5-23.4-1c-13.4,4.6-25.3,0.5-28.8-0.9c-0.1,0.5-0.1,0.8-0.1,0.8 c16,6.9,30.1,1.8,30.1,1.8C71.9,88,80,86.9,84.8,85.4c-4.3-40.2,4.6-61.8,5.6-64c-0.4-0.6-3-2.1-5.5-3.4 c-10.2,26.9-8.2,51.1-8.1,51.3l0.1,0.4l-0.4,0.1l-2.5,0.7l-0.6,0.1l0-0.6c-1.7-26.7,6.8-50.5,8.1-53.7c-22.6-10.8-40.8,0.1-41,0.2 l-0.6,0.3l-0.2-0.6l-0.7-2.5l-0.1-0.4l0.4-0.2c16.7-7,30.7-4.7,39.6-1.5c9.5,3.5,15.2,8.7,15.3,8.7l0.2,0.2L94.1,21 c-9.9,26.5-6.8,56.9-6,63.1c1.2-0.6,1.9-1.1,1.9-1.1C84.8,54.5,92.8,30.2,96.6,20.7L96.6,20.7z"></path> <path class="st4" d="M80.1,33.9c-0.3-0.2-0.7-0.3-1.1-0.3c0.3-0.8,0.4-1.6,0.4-2.6c0-3-1.5-5.4-3.4-5.4c-1,0-1.9,0.7-2.5,1.7 c-0.7-1.4-2.2-2.4-3.8-2.4c-0.4,0-0.7,0.1-1,0.2c0-2.7-1.5-4.9-3.2-4.9c-0.8,0-1.5,0.4-2.1,1.1c-0.3-2.1-1.6-3.7-3.3-3.7 c-1.4,0-2.6,1.2-3.1,2.8c-0.2-1.1-1-2-2.1-2c-1.2,0-2.1,1.1-2.1,2.4c0,0.1,0,0.3,0,0.4c-0.2-0.1-0.3-0.2-0.5-0.2 c-1.2-0.3-2.5,0.7-2.9,2.2c-0.2,0.7-0.2,1.3,0,1.8c3.2-0.8,7.1-0.4,10.7,1.3c4.9,2.3,8,6.5,8.2,10.4c1-1.1,1.2-4.2,1.4-4.1 c0.1,0.2,0.7,0.8,0.9,1.7c0.3,1.3,0.6,3.3,0.3,4.4c0,0.2-0.1,0.3-0.1,0.5c-0.5,1.9-1.4,3.6-2.5,4.6c1.2,0.4,3.1,0.2,5.1-0.6 c1.1-0.5,2-1,2.7-1.6c0.8-0.5,1.6-1.2,2.4-2C80.5,37.4,81.2,34.8,80.1,33.9L80.1,33.9z"></path> <path class="st4" d="M43.3,38.6c0-5.2,4.1-9.5,9.4-10.2C52,27.8,51,27.2,50,26.8c-3.4-1.5-6.8-1.4-7.7,0.2c-0.3,0.5-0.3,1.1,0,1.7 c0.1,0,0.1,0.1,0.2,0.1c0,0-0.1,0.1-0.1,0.2c0-0.1-0.1-0.2-0.1-0.2c-2.4-0.4-4.7,0.4-5.6,2.2c-1,1.9,0,4.4,2.2,5.9 c0.1,0,0.1,0,0.2,0c0,0,0,0.1,0,0.1c0,0-0.1,0-0.1-0.1c-1.1,0.1-2,0.4-2.4,1.1c-0.7,1.3,0.8,3.3,3.3,4.7c0,0,0,0,0.1,0 c0,0,0,0.1,0,0.1c0,0,0,0,0,0c-0.7,0.4-1.1,0.8-1.2,1.4c-0.2,1.5,2.2,2.9,5.4,3.2c1.3,0.1,2.5,0,3.5-0.2c0,0.1,0.1,0.1,0.2,0.2 c0-0.1,0.1-0.1,0.1-0.2C45.1,45.1,43.3,42.1,43.3,38.6L43.3,38.6z"></path> <path class="st4" d="M47.3,42.6c1.2,1,2,2.9,1.6,4.4c-0.2,0.9-1.1,1.8-1.9,2.2c-1.7,0.9-4.1,0.1-6,0.5c0,0.1,0.4,1.3,1.7,2.4 c0.2,0.2,3.9,3.7,7.2,3.1c0.9-0.2,0.9-1.6,0.5-2.6c0.6,0.4,1.3,0.7,2.1,0.7c2.1,0.2,3.8-1,4-2.6c0.1-1.1-0.6-2.1-1.8-2.7 c0.8-0.3,1.3-0.9,1.4-1.6c0.1-1.2-1.4-2.3-3.3-2.5c0.2-0.2,0.8-1.9-1-2.5C48.5,40.4,47.3,42.6,47.3,42.6L47.3,42.6z"></path> <path class="st4" d="M83.3,42.7c0-1-0.6-1.8-1.4-2.3c-0.6,1-4,3.4-4.3,3.5c-2,0.9-4.3,1-5.6,0.8c-0.3,0.7-0.7,1.4-1.2,2.1 c-1.1,1.3-3.7,2.5-3.7,2.5c0.5-0.4,1-1.7,1-2.5c0-1.1-0.6-1.6-1.5-2c0.9-1.8,1.5-3.2,0.7-4.3c-0.8-1-2.5-0.4-2.5-0.4 c1.4-2.9,1.3-5.8-0.3-6.3c-0.7-0.2-1.8,0.1-1.9,0.1c0.1-2.8-1.3-5-3.3-5c-2.4,0-3.9,2.4-3.9,2.4c-0.4-0.8-1.5-1.2-2.2-1.1 c-2.3,0.2-3,3.3-3,3.2c-2.1-0.2-4.1,1.2-4.7,3.5c-0.2,0.7-0.1,2.1-0.2,2.1c1-0.3,2.1-0.5,3.3-0.5c5.8,0,10.3,4.3,10.3,9.6 c0,4.1-2.4,6.6-2.8,7.6c0,0-1.7,3-2.3,4.9c-1.3,4.1-0.9,7.8,0.7,8.9c0.6-1.6,2.7-3.5,5.9-4.6c1.1-0.4,2.4-0.7,3.8-0.8 c5.9-0.6,9.3-4,8.7-4c-0.5,0.1-3.7-0.3-3.7-0.3c0.5-0.3,2.3-1.5,2.9-2.8c0.7-1.2,2.9-3.4,2.9-3.4c-4.5-0.6-11.2,1.6-18.6,10.8 c0.2-9.3,5.6-12.7,5.6-12.7c0,1.7,0.3,2.6,0.3,2.6c0.8-0.9,2.2-1.9,4.3-2.2c3.8-0.6,8.1,0.9,9.4,0.1c1-0.6,1.1-2.5,0.8-3.9 c0.4,0.1,0.8,0.1,1.2,0.1c1.8,0,3.2-0.9,3.2-2c0-0.5-0.1-0.9-0.5-1.3C82.1,45.2,83.3,44.1,83.3,42.7L83.3,42.7z"></path> <path class="st1" d="M101.1,123.6c-0.4,0-0.8,0.1-1.1,0.2c-0.4,0.1-0.7,0.2-1.1,0.2c-0.4,0-1,0.2-1.4,0.3c-0.3,0-1.1,0.2-1.4,0.3 c-0.2,0-0.3,0-0.4,0.1c-0.4,0-0.9,0.1-1.2,0.3c-0.2,0-0.5,0-0.7,0.1c-0.4,0-1,0.1-1.3,0.2c-0.2,0-0.4,0.1-0.5,0.1 c-0.2,0-0.4,0-0.6,0c0-0.3,0.2-0.5,0.4-0.7c0.5-0.8,0.8-1.6,0.1-2.5c-0.3-0.3-0.5-0.6-1-0.7c-0.4,0.5-0.5,1.1-0.7,1.7 c-0.2,0.6-0.5,1.1-0.8,1.6c-0.3,0.5-0.5,1.1-0.9,1.4c-0.4,0.2-1.5,0.4-2,0.6c-0.5,0.2-1,0.4-1.5,0.5c-0.7,0.3-1.6,0.5-2.3,1 c0-0.1,0-0.1-0.1-0.1c0,0.1-0.1,0.1-0.1,0.2c-0.5,0.3-1,0.5-1.5,0.8c-0.3,0.2-0.6,0.4-1,0.6c-1.7,1-3.2,2.7-4.3,4.2 c-0.2,0.3-0.5,0.7-0.6,1c-0.1,0-0.2,0-0.3,0c0-0.3,0.1-0.5,0.1-0.8c0.1-1.2-0.2-2.2-1.3-2.6c-0.3-0.1-0.9-0.2-1.3-0.1 c-1.4,0-2.5,0.8-3.6,1.3c-0.4,0.2-0.7,0.5-1.1,0.6c-0.6,0.1-1.1-0.3-1.6-0.4c-0.4-0.1-0.7,0.1-0.7,0.5c-0.1,0.7,1.1,0.8,1.5,1.1 c0.1,0.1,0.2,0.3,0.3,0.4c0.6,1,0.4,2.6-0.1,3.5c-0.3,0.6-0.8,1.1-1.4,1.6c-0.3,0.1-0.5,0.2-0.7,0.3c-0.4,0-0.8-0.2-0.8-0.6 c0-0.5,0-1,0.2-1.4c0.1-0.4,0.4-0.8,0.6-1.1c0.5-0.6,1.9-2.1,0.2-2.5c-1.4-0.3-4.4,1.6-5.5,2.3c-0.7,0.4-1.4,0.8-2,1.2 c-0.8,0.5-1.4,1.3-2.5,1.4c0-0.6-1.1-1.2-1-1.9c0.1-0.4,0.4-0.7,0.7-1c0.6-0.8,1.7-2.1,0.6-3c-0.3-0.2-0.7-0.2-1-0.4 c0,0,0,0-0.1,0c0,0.1-0.2,0.2-0.3,0.2c-1,0.3-1.7,1-2.2,1.8c-0.4,0.6-0.6,1.3-0.5,2.1c0,0.4,0.3,0.9,0.1,1.3 c-0.2,0.3-1.2,1-1.5,1.2c-1.1,0.8-5.3,3.8-6.6,3.4c0,0,0,0.1,0,0.1c-0.5,0-1-0.3-1.4-0.5c0-0.3,1.1-1,1.4-1.3 c1-1.1,3.5-4.6,1.3-5.6c0-0.1,0,0-0.1,0c-0.2,0-0.5,0-0.8,0c-0.6,0.1-1.2,0.4-1.8,0.7c-1.1,0.7-1.9,2.2-2.3,3.3 c-0.2,0.6-0.4,1.2-0.5,1.9c-0.1,0.2-0.4,0.3-0.6,0.4c-0.4,0-0.7,0.2-1.2,0.2c-0.7,0-1.4,0-2.1,0c-0.2,0-0.5,0-0.8,0.1 c0,0-0.1,0-0.1,0c0,0.3,0.3,0.6,0.5,0.8c0.9,0.8,2.3,0.9,3.6,0.7c0.3-0.1,0.6-0.1,0.9-0.2c0.3,0,0.8,0.5,1,0.7 c1.1,0.9,2.7,0.6,3.9,0c1.6-0.7,3.1-1.7,4.5-2.7c0.7-0.5,1.4-1.1,2.1-1.7c0.3-0.2,0.9-0.8,1.2-0.8c0.4,0,1.4,1.3,1.3,1.7 c-0.1,0.3-0.4,0.4-0.5,0.7c-0.2,0.2-0.3,0.5-0.4,0.7c-0.3,0.9,0.2,1.8,1.2,1.2c0.8-0.4,1.3-1.4,1.5-2.1c0.1-0.3,0.1-0.7,0.3-0.9 c0.3-0.4,0.8-0.7,1.2-1c2-1.6,4.7-3.2,7.6-3.2c0,0.1,0,0.1,0,0.2c-0.1,0-0.4,0.4-0.5,0.5c-0.8,1.1-1.5,2.3-1.1,3.8 c0.1,0.2,0.2,0.5,0.3,0.7c0.3,0,0.7,0.4,1,0.5c0.3,0.1,0.7,0.1,1,0.1c2.8-0.2,3.7-3.4,3.5-5.8c-0.1-0.4-0.1-0.7-0.2-1.1 c-0.1-0.4-0.3-0.7-0.3-1.1c0.6,0,1.2,0,1.8-0.1c1-0.3,2.3-1.4,3.5-1.1c0.3,0.1,0.6,0.3,0.7,0.7c0.2,0.6,0,1.2-0.1,1.8 c-0.2,1-0.5,1.9-0.8,2.8c-0.1,0.3-0.1,0.6-0.3,0.9c0,0.4,1,1.6,1.3,2c0.2,0,0.4-0.2,0.5-0.4c0.4-0.4,0.4-1.1,0.6-1.6 c0.5-1.4,1-2.7,1.6-4c0.3-0.4,0.5-0.8,0.7-1.2c1.1-1.8,2.3-3.7,4.4-4.5c0.8-0.3,1.8-0.3,2.6-0.5c0.5-0.1,1.1-0.2,1.7-0.4 c0.3-0.1,0.5-0.2,0.9-0.2c0,0.4-0.3,0.8-0.5,1.1c0.1,0-0.2,0.5-0.3,0.6c-0.4,0.7-0.8,1.4-1.2,2.2c-0.2,0.5-0.6,1-0.7,1.5 c-0.1,0.3-0.2,0.7-0.3,1c-0.1,0.4-0.1,0.9-0.3,1.1c0,0.4,0,0.8-0.1,1.1c0.1,0.7,0.2,1.5,0.5,2c0.1,0.2,0.2,0.3,0.3,0.5 c0.7,1.3,2.5,2,4.1,2.1c0.4,0,0.9,0,1.2-0.1c0,0.1,0,0.1,0.1,0l0,0c0.4-0.1,0.7-0.2,1.1-0.2c0.6-0.2,1.1-0.5,1.7-0.7 c2-0.9,3.5-2.5,4.6-4.3c0.3-0.4,0.6-0.8,0.5-1.2c0,0-0.1,0-0.1,0c0,0,0,0,0-0.1c0,0-0.1,0-0.1,0c0,0.1-0.5,0.6-0.6,0.8 c-0.6,1.2-1.8,2.3-3,3c-0.3,0.2-0.5,0.3-0.8,0.5c-0.4,0.1-0.8,0.3-1.2,0.5c-0.4,0.1-0.7,0.2-1.1,0.3c-0.9,0-1.8,0-2.6-0.3 c-3.9-1.7-1-8.2,0.4-10.5c0.3-0.5,0.6-1.1,1-1.6c0-0.1,0.2-0.1,0.3-0.1c1.1-0.3,2.2-0.5,3.4-0.8c0.6-0.2,1.3-0.3,1.9-0.5 c1.5-0.4,3-0.9,4.4-1.5c0.2-0.1,0.4-0.2,0.6-0.2c0.3-0.1,0.5-0.3,0.7-0.4c0.2-0.2,0.4-0.4,0.7-0.6c0-0.1,0-0.1,0-0.2 C101.6,123.5,101.3,123.5,101.1,123.6L101.1,123.6z M42.8,137c0.2-0.2,0.5-0.3,0.8-0.5c2.5,0.1-1,4.2-2.3,4.4 C41.2,139.7,41.8,137.9,42.8,137L42.8,137z M53.4,137C53.4,137,53.4,137,53.4,137C53.4,137,53.4,137,53.4,137c-0.1,0-0.1,0-0.1,0 c0-0.1-0.2-0.2-0.2-0.3c0-0.1-0.1-0.3-0.1-0.4c-0.1-1.1,0.6-1.6,1.3-2.3c1.6,0.5,0.2,1.4-0.2,2.3c0,0,0.1,0,0.1,0 c0,0.1-0.3,0.2-0.4,0.3C53.6,136.7,53.5,136.8,53.4,137L53.4,137z M35.4,149.6c-1.2-0.3-2.3-1.1-3.2-2c-1.8-1.7-3.2-3.7-4.4-5.7 c-0.3-0.6-0.7-1.1-1-1.7c-0.3-0.5-0.6-1-0.8-1.5c-0.1-0.2-0.1-0.4-0.2-0.5c0-0.3,0.6-0.4,0.9-0.4c3-0.4,6-1,8.5-2.4 c2.2-1.2,5.6-3.8,3.9-6.6c-0.5-0.9-1.3-1.5-2.3-1.9c-0.7-0.3-1.6-0.5-2.4-0.5c-0.7,0-1.4,0-2.1-0.1c-0.2,0-0.4,0.1-0.6,0.1 c-0.6,0-1.7,0-2.2,0.2c-0.4,0-1.1,0.1-1.4,0.3c-0.2,0-0.5,0-0.7,0v0.1c-0.1,0-0.2-0.1-0.2,0c-0.2,0.1-0.5,0.2-0.8,0.3 c-0.3,0-0.5,0.1-0.8,0.2c-0.7,0.2-1.4,0.4-2,0.6c-4.8,1.6-9.7,4.3-13.1,7.1c-1.5,1.2-3.5,3.1-4.1,4.8c0,0,0,0-0.1,0 c0,0.1,0,0.1,0,0.1c0.4,0,1.5-0.9,1.7-1.2c0.4-0.5,0.8-1.1,1.3-1.6c0.7-0.7,1.3-1.1,2.1-1.7c0.9-0.7,2-1.3,3-1.8 c0.2-0.1,0.5-0.2,0.7-0.3c3.4-1.9,7.2-3.2,10.9-4.4c1.6-0.5,3.2-0.9,4.9-1.1c0.5,0,0.9-0.1,1.4-0.1c1-0.1,2.5-0.3,3.5,0 c0.5,0.1,1.4,0.2,1.7,0.7c0.6,0.7,0,1.6-0.5,2.2c-0.1,0.1-0.2,0.4-0.4,0.4c0,0,0,0,0,0c0,0,0,0-0.1,0c0,0.2-0.2,0.3-0.4,0.5 c-0.4,0.4-0.9,0.8-1.4,1.1c-0.3,0.2-0.5,0.4-0.8,0.6c-1.3,0.8-2.6,1.4-4,2c-0.3,0.2-0.6,0.3-1,0.5c-0.7,0.3-1.4,0.5-2.1,0.7 c-0.4,0-1.2,0.3-1.5,0.4c-0.2,0-0.5,0-0.7,0c-0.2-0.1-0.5-0.1-0.7-0.2c-0.4,0-0.8-0.1-1.2-0.1c0-0.5,0.3-0.9,0.4-1.2 c0.5-1.2,1.1-2.4,1.7-3.6c0.1-0.3,0.3-0.6,0.4-0.9c0-0.2,0-0.4-0.2-0.5c-0.3-0.1-0.5,0-0.7,0.2c-0.2,0.2-0.6,0.9-0.6,1.1 c-0.2,0.4-0.5,0.8-0.7,1.2c-0.9,1.7-1.8,3.4-2.7,5.1c-0.3,0.6-0.6,1.3-1,1.9c-0.1,0,0,0.1-0.1,0.2c-0.2,0.6-0.6,1.1-0.9,1.7 c-0.4,0.7-0.7,1.4-1.1,2.1c-0.1,0.2-0.2,0.4-0.2,0.6c-0.3,0.6-0.8,1.5-0.8,2.2c-0.1,0.7,0.2,1.2,0.3,1.8c0.1,0.7,0.3,1.4,1,1.7 c0,0,0.5-0.6,0.6-0.8c0.2-0.7,0.3-1.3,0.5-2c0.4-1.1,0.7-2.2,1.1-3.3c0.4-1.2,1-2.4,1.4-3.5c0.1-0.3,0.3-0.6,0.4-1 c0.2-0.5,0.3-1.2,0.7-1.6c0,0,0.1-0.1,0.1-0.1c0,0,0.1,0,0.1,0c0,0.2,0.4,0.6,0.5,0.8c0.4,0.6,0.8,1.3,1.2,2 c1.7,2.9,3.6,5.8,6.4,8c0.8,0.6,1.6,1.1,2.6,1.4c0.4,0.1,1.1,0.2,1.6,0.1c0.3,0,0.6-0.1,0.9-0.1c0,0,0,0,0,0c0,0,0,0,0.1,0 C35.8,149.7,35.6,149.6,35.4,149.6L35.4,149.6z"></path> <path class="st3" d="M100.3,123.2c-0.4,0-0.8,0.1-1.1,0.2c-0.4,0.1-0.7,0.1-1.1,0.2c-0.4,0-1,0.1-1.4,0.3c-0.3,0-1.1,0.2-1.4,0.3 c-0.1,0-0.3,0-0.4,0c-0.4,0-0.9,0.1-1.2,0.3c-0.3,0-0.5,0-0.7,0.1c-0.4,0-1,0.1-1.3,0.2c-0.2,0-0.4,0-0.5,0.1c-0.2,0-0.4,0-0.6,0 c0-0.3,0.2-0.5,0.4-0.7c0.5-0.9,0.8-1.6,0.1-2.5c-0.3-0.3-0.5-0.6-1-0.7c-0.4,0.5-0.5,1.1-0.7,1.7c-0.2,0.6-0.5,1.1-0.8,1.6 c-0.3,0.5-0.5,1.1-0.9,1.4c-0.4,0.3-1.5,0.5-2,0.6c-0.5,0.2-1,0.4-1.5,0.5c-0.7,0.3-1.6,0.5-2.3,1c0-0.1,0-0.1-0.1-0.1 c0,0.1-0.1,0.1-0.1,0.2c-0.5,0.3-1,0.6-1.5,0.8c-0.3,0.2-0.6,0.4-1,0.6c-1.7,1-3.2,2.7-4.3,4.2c-0.2,0.3-0.5,0.7-0.6,1.1 c-0.1,0-0.2,0-0.3,0c0-0.3,0.1-0.5,0.1-0.8c0.1-1.2-0.2-2.2-1.3-2.6c-0.3-0.1-0.9-0.2-1.3-0.1c-1.4,0-2.5,0.8-3.6,1.3 c-0.4,0.2-0.7,0.5-1.1,0.6c-0.6,0.1-1.1-0.3-1.6-0.4c-0.3-0.1-0.7,0.1-0.7,0.5c-0.1,0.7,1.1,0.8,1.5,1.1c0.1,0.1,0.2,0.3,0.3,0.4 c0.6,1,0.4,2.6-0.1,3.6c-0.3,0.6-0.8,1.1-1.4,1.5c-0.3,0.1-0.5,0.2-0.7,0.3c-0.4,0-0.8-0.2-0.8-0.6c0-0.5,0-1,0.2-1.4 c0.1-0.4,0.4-0.8,0.6-1.1c0.5-0.6,1.9-2.1,0.2-2.5c-1.4-0.3-4.4,1.6-5.5,2.3c-0.7,0.4-1.4,0.8-2.1,1.2c-0.8,0.5-1.4,1.3-2.5,1.4 c0-0.6-1.1-1.2-1-1.9c0.1-0.4,0.4-0.7,0.7-1c0.6-0.8,1.7-2.2,0.6-3.1c-0.3-0.2-0.7-0.2-1-0.3c0,0,0,0-0.1,0c0,0.1-0.2,0.2-0.3,0.2 c-0.9,0.2-1.7,1-2.2,1.8c-0.4,0.6-0.6,1.4-0.5,2.1c0,0.4,0.3,0.9,0.1,1.3c-0.2,0.3-1.2,1-1.5,1.2c-1.1,0.8-5.3,3.8-6.6,3.4 c0,0,0,0.1,0,0.1c-0.5,0-1-0.3-1.4-0.5c0-0.3,1.1-1,1.4-1.3c1-1.1,3.5-4.7,1.3-5.6c0-0.1,0-0.1-0.1-0.1c-0.2,0-0.5,0-0.7,0 c-0.6,0.1-1.3,0.4-1.8,0.7c-1.1,0.7-1.9,2.2-2.3,3.3c-0.2,0.6-0.4,1.3-0.5,1.9c-0.1,0.2-0.4,0.2-0.6,0.4c-0.4,0-0.8,0.2-1.2,0.2 c-0.7,0-1.4,0-2.1,0c-0.2,0-0.5,0-0.7,0.1c0,0-0.1,0-0.1,0c0,0.3,0.3,0.6,0.5,0.8c0.9,0.8,2.3,0.9,3.6,0.7c0.3,0,0.6-0.1,0.9-0.2 c0.3,0,0.8,0.6,1,0.7c1.1,0.9,2.7,0.6,3.9,0.1c1.6-0.7,3.1-1.7,4.6-2.8c0.7-0.5,1.4-1.1,2.1-1.6c0.2-0.2,0.9-0.8,1.2-0.8 c0.4,0,1.4,1.3,1.3,1.7c0,0.3-0.4,0.4-0.5,0.7c-0.2,0.2-0.3,0.4-0.4,0.7c-0.3,0.9,0.2,1.8,1.3,1.2c0.8-0.4,1.3-1.4,1.5-2.1 c0.1-0.3,0.1-0.7,0.3-0.9c0.3-0.4,0.8-0.7,1.2-1c2-1.6,4.7-3.2,7.5-3.2c0,0.1,0,0.1,0,0.2c-0.1,0-0.4,0.4-0.4,0.6 c-0.8,1.1-1.5,2.3-1.1,3.8c0.1,0.2,0.2,0.5,0.3,0.7c0.3,0,0.7,0.4,1,0.5c0.3,0.1,0.7,0.1,1,0.1c2.8-0.2,3.7-3.4,3.5-5.8 c-0.1-0.4-0.1-0.7-0.2-1.1c-0.1-0.4-0.3-0.7-0.3-1.1c0.6,0,1.2,0,1.8-0.1c1-0.3,2.3-1.4,3.5-1.1c0.3,0.1,0.6,0.3,0.7,0.7 c0.2,0.6,0,1.2-0.1,1.8c-0.2,1-0.5,1.9-0.8,2.9c-0.1,0.3-0.1,0.6-0.3,0.9c0,0.4,1,1.6,1.3,2c0.2,0,0.4-0.3,0.5-0.4 c0.4-0.4,0.4-1.1,0.6-1.6c0.5-1.3,1-2.7,1.6-4c0.3-0.4,0.5-0.8,0.7-1.2c1.1-1.7,2.3-3.7,4.4-4.4c0.8-0.3,1.8-0.3,2.6-0.5 c0.5-0.1,1.1-0.2,1.7-0.4c0.3-0.1,0.5-0.2,0.9-0.2c0,0.4-0.3,0.8-0.5,1.1c0.1,0-0.2,0.6-0.3,0.6c-0.4,0.7-0.8,1.4-1.2,2.2 c-0.2,0.4-0.5,1-0.7,1.4c-0.1,0.3-0.2,0.7-0.3,1c-0.1,0.4-0.1,0.8-0.3,1.2c0,0.4-0.1,0.7-0.1,1.1c0.1,0.7,0.2,1.5,0.5,2.1 c0.1,0.2,0.2,0.3,0.3,0.4c0.7,1.3,2.5,2.1,4.1,2.1c0.4,0,0.9,0,1.2-0.1c0,0.1,0,0.1,0.1,0h0c0.3-0.1,0.7-0.1,1.1-0.2 c0.6-0.2,1.1-0.5,1.7-0.7c2-0.9,3.5-2.5,4.6-4.3c0.2-0.4,0.6-0.8,0.5-1.2c0,0-0.1,0-0.1,0c0,0,0,0,0,0c0,0,0,0-0.1,0 c0,0.1-0.5,0.6-0.6,0.8c-0.6,1.2-1.8,2.3-3,3c-0.3,0.2-0.5,0.3-0.8,0.5c-0.4,0.1-0.8,0.3-1.2,0.4c-0.4,0.1-0.7,0.2-1.1,0.3 c-0.9,0-1.8,0-2.5-0.3c-3.9-1.7-1-8.3,0.4-10.5c0.3-0.5,0.6-1.1,0.9-1.6c0-0.1,0.2-0.1,0.3-0.1c1.1-0.3,2.3-0.6,3.4-0.8 c0.6-0.2,1.3-0.4,1.9-0.5c1.5-0.5,3-0.9,4.4-1.5c0.2-0.1,0.4-0.2,0.6-0.3c0.2-0.1,0.5-0.3,0.8-0.4c0.2-0.2,0.5-0.4,0.7-0.6 c0-0.1,0-0.1,0-0.2C100.8,123.1,100.5,123.1,100.3,123.2L100.3,123.2z M42,136.7c0.2-0.2,0.5-0.3,0.7-0.5c2.5,0.1-1,4.2-2.3,4.4 C40.4,139.3,41,137.5,42,136.7L42,136.7z M52.7,136.6C52.6,136.6,52.6,136.6,52.7,136.6C52.6,136.6,52.6,136.6,52.7,136.6 c-0.1,0-0.1,0-0.1,0c0-0.1-0.2-0.2-0.2-0.3c0-0.1-0.1-0.3-0.1-0.4c-0.1-1.1,0.6-1.6,1.3-2.3c1.6,0.5,0.2,1.4-0.2,2.3 c0,0,0.1,0,0.1,0c0,0.1-0.3,0.2-0.4,0.3C52.8,136.3,52.7,136.5,52.7,136.6L52.7,136.6z M34.7,149.2c-1.2-0.3-2.3-1.1-3.2-2 c-1.8-1.7-3.2-3.7-4.4-5.7c-0.3-0.6-0.8-1.1-1.1-1.7c-0.3-0.5-0.6-1-0.8-1.5c-0.1-0.2-0.1-0.4-0.2-0.5c0-0.3,0.6-0.4,0.9-0.5 c3-0.4,6-1,8.5-2.4c2.2-1.2,5.6-3.8,3.9-6.6c-0.5-0.9-1.3-1.5-2.3-1.9c-0.8-0.3-1.6-0.5-2.5-0.5c-0.7-0.1-1.4,0-2.1-0.1 c-0.2,0.1-0.4,0.1-0.5,0.1c-0.6,0-1.8,0-2.2,0.2c-0.4,0-1.1,0.1-1.4,0.3c-0.2,0-0.5,0-0.7,0.1v0.1c-0.1,0-0.2-0.1-0.2,0 c-0.3,0.1-0.5,0.2-0.8,0.3c-0.3,0-0.5,0.1-0.8,0.2c-0.7,0.2-1.4,0.4-2,0.6c-4.8,1.6-9.7,4.3-13.1,7.1c-1.5,1.2-3.5,3.1-4.1,4.8 c0,0,0,0-0.1,0c0,0,0,0.1,0,0.1c0.5,0,1.5-0.9,1.7-1.2c0.4-0.5,0.8-1.1,1.3-1.6c0.6-0.7,1.3-1.2,2.1-1.7c0.9-0.7,2-1.3,3-1.8 c0.2-0.1,0.4-0.2,0.7-0.3c3.4-1.9,7.2-3.2,10.9-4.4c1.6-0.5,3.2-0.9,4.9-1.1c0.5,0,0.9-0.1,1.4-0.1c1-0.1,2.5-0.3,3.5,0 c0.5,0.1,1.4,0.2,1.8,0.6c0.6,0.7,0,1.7-0.6,2.2c-0.1,0.2-0.2,0.4-0.4,0.4v-0.1c0,0-0.1,0-0.1,0c0,0.2-0.2,0.3-0.4,0.5 c-0.4,0.4-0.9,0.8-1.4,1.1c-0.3,0.2-0.6,0.4-0.8,0.6c-1.3,0.8-2.6,1.4-4,2c-0.3,0.2-0.7,0.3-1,0.5c-0.7,0.2-1.4,0.5-2.1,0.7 c-0.4,0-1.2,0.2-1.5,0.4c-0.3,0-0.5,0-0.7,0c-0.2-0.1-0.5-0.1-0.7-0.2c-0.4-0.1-0.8-0.1-1.2-0.2c0-0.5,0.3-0.9,0.4-1.2 c0.5-1.2,1.1-2.4,1.6-3.6c0.1-0.3,0.3-0.6,0.4-0.9c0-0.2,0-0.4-0.2-0.4c-0.3-0.1-0.5,0-0.7,0.2c-0.2,0.2-0.6,0.9-0.6,1.1 c-0.2,0.4-0.4,0.8-0.7,1.2c-0.9,1.7-1.8,3.4-2.7,5.1c-0.3,0.6-0.6,1.3-1,1.9c-0.1,0-0.1,0.1-0.1,0.2c-0.2,0.6-0.6,1.1-0.8,1.7 c-0.4,0.7-0.7,1.4-1.1,2.1c-0.1,0.2-0.2,0.4-0.2,0.6c-0.3,0.6-0.7,1.5-0.8,2.2c-0.1,0.7,0.2,1.1,0.3,1.7c0.1,0.7,0.2,1.4,1,1.7 c0,0,0.5-0.6,0.6-0.8c0.2-0.7,0.3-1.3,0.5-2c0.4-1.1,0.7-2.2,1.1-3.3c0.4-1.2,1-2.3,1.4-3.5c0.1-0.3,0.3-0.7,0.4-1 c0.2-0.5,0.3-1.2,0.7-1.6c0,0,0.1,0,0.1-0.1c0,0,0.1,0,0.1,0c0,0.2,0.4,0.6,0.5,0.8c0.4,0.6,0.8,1.3,1.2,2c1.7,2.9,3.6,5.8,6.4,8 c0.8,0.6,1.7,1.1,2.6,1.4c0.4,0.1,1.1,0.2,1.6,0.1c0.3-0.1,0.6-0.1,0.9-0.1c0,0,0,0,0-0.1c0,0,0,0,0,0 C35,149.3,34.8,149.3,34.7,149.2L34.7,149.2z"></path> </g> </g> </svg> 